<svg width="2000" height="434" viewBox="0 0 2000 434" fill="none" xmlns="http://www.w3.org/2000/svg">
<path d="M116.274 371.63C119.767 358.205 122.967 345.917 126.166 333.629C126.819 331.126 127.602 328.623 128.125 326.088C131.161 311.492 119.049 299.724 104.358 303.04C98.7753 304.308 93.2905 306.031 87.7078 307.396C85.2593 308.014 82.7783 308.306 79.0565 308.956C78.4362 300.96 77.4568 293.776 77.4242 286.624C77.2609 248.916 77.0977 211.207 77.4569 173.532C77.5874 159.001 79.0239 144.503 83.5291 130.46C93.0947 100.651 113.564 83.1292 144.122 77.1479C150.749 75.8476 157.572 75.0999 164.33 75.0674C203.768 74.8399 243.205 74.7424 282.61 74.9375C290.641 74.97 298.835 75.8801 306.671 77.603C338.306 84.527 358.089 104.194 365.827 135.271C368.634 146.518 370.332 158.351 370.463 169.923C371.018 209.712 370.789 249.501 370.593 289.257C370.528 302.292 368.667 315.133 364.815 327.68C355.543 357.912 335.041 375.823 304.157 381.87C296.779 383.3 289.139 384.015 281.598 384.048C242.944 384.21 204.29 384.048 165.636 384.015C152.969 384.015 140.661 382.032 128.876 377.481C124.86 375.888 120.975 373.808 116.274 371.63ZM287.278 230.257C287.278 212.313 287.344 194.369 287.246 176.425C287.213 164.462 283.23 160.464 271.314 160.431C239.712 160.334 208.11 160.334 176.507 160.366C164.591 160.399 160.641 164.365 160.641 176.425C160.576 211.793 160.576 247.16 160.641 282.528C160.674 294.621 164.559 298.554 176.475 298.587C208.077 298.652 239.679 298.619 271.282 298.522C283.23 298.489 287.181 294.458 287.213 282.528C287.344 265.104 287.278 247.68 287.278 230.257Z" fill="#F5DE0B"/>
<path d="M600.009 55.8232C592.99 55.8232 586.003 55.8557 579.017 55.8232C575.687 55.7907 575.001 52.9626 573.793 50.7521C567.427 39.082 558.09 30.7602 545.456 26.4367C523.517 18.9601 499.228 27.867 487.508 48.3465C484.178 54.1653 480.684 56.7333 474.09 55.9532C469.552 55.433 464.916 55.8556 460.345 55.8556C460.476 29.2648 494.624 0.951141 526.227 0.0409416C562.399 -0.999287 598.017 25.5916 600.009 55.8232Z" fill="#F5DE0B"/>
<path d="M270.628 55.5307C269.224 53.0602 267.951 50.7846 266.645 48.5741C247.024 15.6444 200.829 15.4819 181.502 48.6067C178.041 54.523 174.352 56.6033 167.921 55.9532C163.35 55.4981 158.681 55.8557 154.013 55.8557C155.874 26.0792 191.002 -0.544168 226.522 0.00845356C258.842 0.528568 293.154 28.5823 293.938 55.5307C286.2 55.5307 278.463 55.5307 270.628 55.5307Z" fill="#F5DE0B"/>
<path d="M384.151 228.728C384.151 204.543 383.825 180.358 384.282 156.205C384.51 144.177 387.808 132.572 392.574 121.487C403.38 96.5219 422.903 82.3813 449.217 77.1801C457.085 75.6198 465.279 74.9371 473.31 74.9046C511.181 74.7096 549.051 74.677 586.921 75.0996C596.487 75.1972 606.248 76.4 615.553 78.6105C643.237 85.1769 661.16 102.698 670.008 129.484C674.187 142.162 676.21 155.295 676.276 168.59C676.472 209.159 676.472 249.728 676.276 290.297C676.21 303.332 674.219 316.173 670.236 328.655C660.703 358.497 640.136 375.953 609.546 381.804C602.396 383.17 595.05 383.852 587.77 383.885C549.377 384.145 510.985 384.243 472.592 383.982C463.777 383.917 454.799 382.975 446.246 381.024C414.252 373.775 394.99 353.296 387.612 321.926C385.131 311.394 384.021 300.374 383.694 289.517C383.107 269.265 383.531 248.948 383.531 228.663C383.727 228.728 383.956 228.728 384.151 228.728ZM466.487 229.509C466.487 245.892 466.487 262.276 466.487 278.659C466.487 281.26 466.356 283.861 466.617 286.461C467.336 293.775 471.286 297.676 478.664 298.456C480.721 298.684 482.843 298.586 484.932 298.586C514.967 298.619 545.003 298.651 575.038 298.619C589.892 298.619 593.451 295.108 593.712 280.252C593.712 279.992 593.712 279.732 593.712 279.472C593.712 246.185 593.745 212.897 593.679 179.61C593.679 176.75 593.516 173.856 592.994 171.093C591.753 164.462 588.064 161.179 581.339 160.496C579.282 160.301 577.16 160.366 575.07 160.366C545.035 160.366 515 160.398 484.965 160.431C482.353 160.431 479.709 160.333 477.162 160.756C471.384 161.699 467.825 165.242 466.846 170.996C466.454 173.271 466.519 175.644 466.519 177.985C466.487 195.181 466.487 212.345 466.487 229.509Z" fill="#F5DE0B"/>
<path d="M78.4427 433.621C71.0319 433.816 66.1674 430.045 63.0333 423.706C58.6586 414.864 54.1861 406.055 50.1052 397.083C47.0364 390.354 42.4006 385.641 35.6427 382.552C27.1218 378.684 18.8295 374.296 10.4719 370.07C5.11776 367.339 1.1675 363.471 0.286034 357.197C-1.18308 347.055 2.99567 339.87 13.0836 337.042C40.409 329.371 67.7346 321.732 95.1906 314.645C110.535 310.679 121.177 321.504 117.292 336.685C110.143 364.576 102.699 392.369 95.2233 420.163C92.7421 429.2 86.8983 433.621 78.4427 433.621Z" fill="#00C844"/>
<path d="M1916.77 298.169C1917.25 291.395 1917.89 286.435 1917.94 281.368C1918.16 266.006 1917.62 250.644 1918.27 235.283C1919.5 205.787 1944.94 188.558 1972.96 197.786C1989.78 203.333 1999.1 215.708 1999.74 234.376C2000.17 247.178 1999.9 259.979 1999.9 272.78C1999.9 296.249 2000.17 319.718 1999.8 343.187C1999.42 365.856 1989.19 377.59 1966.69 381.697C1960.85 382.764 1954.8 383.244 1948.85 383.298C1901.71 383.404 1854.57 383.831 1807.49 383.084C1793.99 382.871 1780.17 380.524 1767.2 376.684C1745.83 370.39 1731.05 355.668 1723.44 334.813C1719.69 324.519 1716.21 313.424 1716.05 302.65C1715.24 254.058 1715.46 205.413 1715.83 156.822C1715.89 148.874 1717.98 140.767 1720.17 133.033C1728.9 101.99 1749.85 83.9614 1781.29 77.9875C1790.08 76.334 1799.13 75.5339 1808.08 75.4806C1854.36 75.2672 1900.59 75.2672 1946.87 75.4806C1954.1 75.5339 1961.44 76.334 1968.51 77.7741C1986.14 81.4011 1996.21 91.9622 1998.78 109.777C2002.26 133.94 1992.67 154.902 1964.5 158.795C1957.75 159.756 1950.89 160.396 1944.09 160.396C1903.37 160.556 1862.72 160.502 1822 160.502C1818.15 160.502 1814.29 160.342 1810.43 160.662C1801.33 161.462 1797.74 165.249 1796.93 174.53C1796.72 177.091 1796.83 179.651 1796.83 182.211C1796.83 213.788 1796.83 245.364 1796.83 276.887C1796.83 279.447 1796.72 282.008 1796.99 284.568C1797.9 293.689 1801.49 297.156 1810.92 297.902C1813.92 298.116 1816.92 298.009 1819.92 298.009C1846.91 298.009 1873.91 298.009 1900.86 298.009C1905.52 298.169 1910.18 298.169 1916.77 298.169Z" fill="#00C844"/>
<path d="M1616.56 227.976C1620.84 233.256 1624.22 237.577 1627.76 241.79C1647.52 265.366 1667.29 288.941 1687.05 312.517C1692.89 319.451 1697.93 326.759 1698.79 336.199C1700.66 356.361 1689.73 373.483 1670.02 381.111C1652.93 387.725 1635.84 382.711 1623.63 366.229C1604.02 339.827 1585.01 312.997 1565.67 286.328C1562.99 282.594 1560.05 279.021 1555.6 273.207C1554.58 278.54 1553.62 281.527 1553.56 284.568C1553.4 300.356 1553.51 316.144 1553.46 331.932C1553.46 336.626 1553.46 341.32 1553.08 346.014C1551.15 369.376 1534.71 383.938 1511.14 383.351C1487.68 382.764 1471.55 367.243 1471.44 343.56C1471.12 267.606 1471.28 191.652 1471.39 115.698C1471.39 99.323 1478.3 86.5751 1493.78 80.0144C1509.37 73.4538 1524.8 74.4138 1538.89 84.6015C1549.55 92.2822 1553.14 103.483 1553.3 115.965C1553.51 133.886 1553.4 151.808 1553.56 169.73C1553.62 174.264 1554.15 178.744 1554.42 183.278C1555.28 183.491 1556.08 183.758 1556.94 183.971C1559.72 180.398 1562.62 176.931 1565.24 173.25C1583.78 147.114 1602.15 120.872 1620.74 94.7891C1629.58 82.3613 1640.83 73.8805 1657.22 74.8406C1674.63 75.854 1687.32 84.3348 1694.82 99.643C1702 114.364 1700.29 128.979 1689.84 141.62C1671.31 164.023 1652.24 185.945 1633.38 208.08C1628.13 214.268 1622.93 220.455 1616.56 227.976Z" fill="#00C844"/>
<path d="M771.94 275.308C771.565 279.789 770.922 284.269 770.922 288.749C770.761 307.098 770.815 325.446 770.708 343.795C770.654 359.743 764.172 371.904 749.227 378.678C733.96 385.559 719.175 384.279 705.301 374.998C696.677 369.238 691.588 361.023 690.892 350.516C690.517 345.395 690.409 340.275 690.409 335.154C690.356 264.747 690.356 194.34 690.409 123.987C690.409 119.719 690.356 115.452 690.677 111.185C691.963 92.9968 704.926 79.4489 723.086 77.2087C735.406 75.7152 746.977 77.2087 757.101 85.2094C766.154 92.3568 770.386 101.798 770.547 113.052C770.815 131.401 770.761 149.749 770.922 168.097C770.976 173.058 771.511 178.072 771.886 183.726C778.689 182.872 780.296 177.965 782.76 174.498C800.866 149.109 818.758 123.56 836.864 98.1707C840.078 93.6902 843.507 89.2098 847.578 85.4761C863.38 70.968 885.397 71.2881 902.324 85.9029C918.502 99.9309 921.823 123.293 908.538 139.988C891.503 161.377 873.29 181.806 855.559 202.661C851.702 207.195 847.792 211.782 843.882 216.316C833.114 228.85 833.114 227.09 844.149 240.318C864.184 264.267 884.164 288.216 904.36 311.952C912.448 321.446 917.644 331.58 916.573 344.488C915.019 362.89 904.038 373.985 888.021 380.545C873.13 386.679 859.363 383.372 847.738 372.384C844.364 369.184 841.524 365.344 838.739 361.557C819.883 335.634 801.134 309.658 782.332 283.736C779.975 280.482 777.189 277.495 774.565 274.401C773.708 274.721 772.85 274.988 771.94 275.308Z" fill="#00C844"/>
<path d="M1047.17 265.641C1061.74 265.641 1074.65 265.641 1089.22 265.641C1087.24 259.721 1085.95 254.92 1084.07 250.333C1068.92 213.21 1053.7 176.139 1038.49 139.016C1037.04 135.442 1035.33 131.975 1034.36 128.241C1030.29 112.72 1032.33 98.4251 1044.81 87.1707C1057.5 75.8096 1072.13 71.7558 1088.84 77.0896C1100.95 80.93 1107.38 90.1575 1111.93 101.199C1121.2 123.654 1130.46 146.163 1139.68 168.619C1160.25 218.757 1180.87 268.842 1201.17 319.033C1204.01 326.074 1206.32 333.541 1207.39 341.009C1210.23 361.491 1194.75 377.386 1176.59 382.346C1155.91 388 1138.5 380.159 1129.66 361.384C1129.29 360.637 1129.02 359.784 1128.7 359.037C1120.93 341.222 1120.93 341.169 1101.86 341.116C1076.58 341.009 1051.29 341.329 1026.06 340.902C1016.26 340.742 1009.45 343.356 1006.88 353.49C1006.24 355.944 1004.96 358.237 1003.88 360.531C993.866 381.76 973.618 389.494 951.334 380.48C930.335 371.999 920.478 351.677 927.871 330.501C931.674 319.674 936.763 309.272 941.37 298.711C952.565 273.322 963.708 247.933 975.064 222.651C985.296 199.875 1005.28 191.394 1027.56 200.195C1049.58 208.836 1059 229.425 1051.61 252.414C1050.17 256.361 1048.93 260.254 1047.17 265.641Z" fill="#00C844"/>
<path d="M1344.91 158.742C1344.48 166.956 1343.94 172.397 1343.94 177.837C1343.89 229.042 1343.94 280.194 1343.89 331.399C1343.89 337.373 1343.89 343.347 1343.19 349.267C1340.89 368.843 1326.48 381.751 1305.96 383.031C1284.96 384.364 1267.88 372.737 1263.64 353.748C1262.25 347.561 1261.93 341.107 1261.88 334.76C1261.77 282.274 1261.82 229.842 1261.82 177.357C1261.82 172.29 1261.82 167.223 1261.82 160.876C1256.36 160.182 1251.91 159.382 1247.41 159.169C1240.13 158.795 1232.84 159.009 1225.56 158.635C1211.95 157.995 1202.2 151.061 1195.56 139.594C1186.78 124.445 1188.33 103.75 1198.99 90.0953C1204.45 83.108 1211.36 78.2009 1220.31 77.0275C1226.68 76.174 1233.11 75.5873 1239.49 75.534C1282.77 75.374 1326 75.4273 1369.28 75.4806C1373.14 75.4806 1376.99 75.4806 1380.8 76.014C1384.17 76.4407 1387.55 77.2408 1390.76 78.4675C1408.06 85.0282 1417.55 104.283 1414.39 126.206C1411.87 143.754 1397.83 157.355 1379.83 158.582C1368.8 159.329 1357.66 158.742 1344.91 158.742Z" fill="#00C844"/>
<path d="M1414 299.481C1437.09 299.534 1454.93 317.616 1454.93 340.978C1454.93 363.807 1436.29 382.529 1413.63 382.422C1390.81 382.316 1372.54 363.647 1372.7 340.658C1372.92 317.189 1390.7 299.481 1414 299.481Z" fill="#00C844"/>
</svg>
